<?xml version="1.0" encoding="utf-8"?>
<!-- Generator: Adobe Illustrator 21.0.2, SVG Export Plug-In . SVG Version: 6.00 Build 0)  -->
<svg version="1.1" id="Layer_2" xmlns="http://www.w3.org/2000/svg" xmlns:xlink="http://www.w3.org/1999/xlink" x="0px" y="0px"
	 viewBox="0 0 400 180" style="enable-background:new 0 0 400 180;" xml:space="preserve">
<style type="text/css">
	.st0{display:none;fill:#002B38;}
	.st1{fill:#002B38;}
	.st2{fill:#2092A8;}
</style>
<rect id="Rectangle-4_9_" class="st0" width="400" height="180"/>
<g>
	<g>
		<path class="st1" d="M110.2,78.9c4.9,0,8.7,2.2,11.4,6.6l0.1,0.8v0.1c0,1.1-0.7,1.8-2.1,2c-0.9,0-1.9-0.8-2.8-2.4
			c-1.9-1.9-4.1-2.8-6.6-2.8c-3.2,0-5.8,1.5-7.6,4.6l-0.1,0.5c0,0.9,1,1.5,3.1,1.7c8,1.9,12.4,3.1,13.2,3.3c2,1.3,3,3,3,5v0.1
			c0,2.9-2.1,5.6-6.4,8c-1.8,0.8-3.8,1.2-5.9,1.2c-4.2,0-7.8-2-10.8-6c-0.3-0.4-0.4-0.8-0.4-1.2v-0.6c0-1,0.8-1.6,2.3-1.8
			c0.7,0,1.6,0.9,2.8,2.6c1.9,1.7,4,2.6,6.5,2.6c2.9,0,5.4-1.4,7.3-4.2l0.2-0.6v-0.1c0-0.9-0.6-1.4-1.9-1.6
			c-9.4-2.1-14.3-3.4-14.9-3.9C98.9,91.5,98,89.9,98,88c0-2.6,1.9-5.2,5.7-7.6C106,79.5,108.1,78.9,110.2,78.9z"/>
		<path class="st1" d="M132.6,68.4h0.4c1.2,0.3,1.9,0.8,1.9,1.7v9.3h4.3l0.9-0.1c1,0,1.6,0.7,2,2.1c0,0.9-0.6,1.6-1.8,2.1l-1.6-0.1
			h-3.8v15.3c0,2.7,0.9,4.3,2.6,4.9l2.4,0.2h1.2c0.9,0,1.5,0.7,1.8,2v0.1c-0.2,1.3-0.9,2-2,2h-2.2c-3.3,0-5.8-1.8-7.4-5.4
			c-0.3-0.9-0.4-1.9-0.4-3.1V83.5h-2.1l-1.7,0.1c-1.2-0.4-1.8-1.1-1.8-2.1c0.2-1.3,0.8-2,1.9-2v-0.1l1,0.1h2.6v-8.7
			C131,69.1,131.6,68.4,132.6,68.4z"/>
		<path class="st1" d="M160.6,78.8c5.5,0,9.8,2.7,13,8c1,2.2,1.5,4.4,1.5,6.8v12.2c0,1-0.7,1.7-2,1.9h-0.2c-0.9,0-1.6-0.5-2-1.6V106
			l0.1-2.6v-0.1c-3.1,3-6.5,4.4-10.1,4.4h-0.8c-4.9,0-9-2.5-12.3-7.4c-1.2-2.4-1.8-4.8-1.8-7.2c0-5.4,2.6-9.6,7.9-12.8
			C156.3,79.3,158.5,78.8,160.6,78.8z M150.2,93v0.3c0,4.2,2.1,7.4,6.3,9.5c1.3,0.5,2.5,0.7,3.6,0.7h0.8c3.5,0,6.4-1.8,8.7-5.3
			c0.8-1.7,1.2-3.2,1.2-4.8V93c0-4.1-2-7.2-6-9.3c-1.4-0.6-2.8-0.9-4.3-0.9h-0.1c-4.3,0-7.5,2.2-9.6,6.7
			C150.4,90.9,150.2,92.1,150.2,93z"/>
		<path class="st1" d="M200.1,79.1c1.3,0.2,2,0.9,2,1.9v0.1c-0.1,0.5-3.3,8.4-9.8,23.8c-3,7.6-4.7,11.6-5.1,12.1
			c-0.3,0.3-0.8,0.5-1.3,0.6c-1.3-0.3-2-0.8-2-1.7v-0.5c0-0.2,1.5-3.9,4.4-11.1v-0.1l-9.4-22.9v-0.1c0.3-1.3,0.9-2,2-2
			s2.1,1.3,2.9,3.9c4.3,10.2,6.5,15.5,6.6,16h0.1c5.2-12.6,7.9-19.1,8.2-19.5C199.2,79.3,199.7,79.1,200.1,79.1z"/>
		<g>
			<path class="st1" d="M220.4,78.8c5.5,0,9.8,2.7,13,8c1,2.2,1.5,4.4,1.5,6.8v12.2c0,1-0.7,1.7-2,1.9h-0.1c-0.9,0-1.6-0.5-2-1.6
				V106l0.1-2.6v-0.1c-3.1,3-6.5,4.4-10.1,4.4H220c-4.9,0-9-2.5-12.3-7.4c-1.2-2.4-1.8-4.8-1.8-7.2c0-5.4,2.6-9.6,7.9-12.8
				C216.1,79.3,218.3,78.8,220.4,78.8z M210,93v0.3c0,4.2,2.1,7.4,6.3,9.5c1.3,0.5,2.5,0.7,3.6,0.7h0.8c3.5,0,6.4-1.8,8.7-5.3
				c0.8-1.7,1.2-3.2,1.2-4.8V93c0-4.1-2-7.2-6-9.3c-1.4-0.6-2.8-0.9-4.3-0.9h-0.1c-4.3,0-7.5,2.2-9.6,6.7
				C210.3,90.9,210,92.1,210,93z"/>
			<path class="st1" d="M241.7,79.1c1.3,0,2.2,1.4,2.7,4.2l5.1,15.7h0.1c3.9-12.4,6-18.8,6.3-19.2c0.5-0.4,1-0.7,1.6-0.7
				c1.2,0,2.1,1.2,2.5,3.5l5.3,16.5h0.1c3.8-11.9,5.8-18.2,6.1-19c0.6-0.6,1.1-0.9,1.7-0.9c1.4,0.3,2.1,1,2.1,2.1l-8.2,25.7
				c-0.6,0.5-1.1,0.8-1.7,0.8h-0.1c-1.3,0-2.2-1.4-2.7-4.1c-3.3-10.1-5-15.3-5-15.6h-0.2l-6.1,18.8c-0.5,0.6-1,0.9-1.7,0.9h-0.1
				c-1,0-1.7-0.6-2.1-1.9l-7.8-24.6C239.9,79.8,240.6,79.1,241.7,79.1z"/>
			<path class="st1" d="M282.7,67.2h0.4c1.3,0.3,1.9,0.8,1.9,1.7V82c2.7-2.4,5.7-3.5,8.8-3.5c4.8,0,8.6,2.2,11.4,6.7
				c1.1,2,1.6,3.9,1.6,5.7v15c0,1.1-0.7,1.7-2,1.9h-0.1c-1,0-1.7-0.6-2-1.9V91.6c0-3.9-2-6.6-6-8.3c-1-0.3-1.9-0.4-2.9-0.4
				c-4,0-6.8,2.1-8.4,6.3c-0.3,0.9-0.4,2.4-0.4,4.5v12.1c0,1.1-0.7,1.7-2,1.9h-0.1c-1,0-1.7-0.6-2-1.9V69.2
				C281.1,67.9,281.7,67.2,282.7,67.2z"/>
			<path class="st1" d="M315.7,71.3c1.4,0.3,2,0.9,2,1.8v0.6c0,1-0.7,1.6-2.2,1.8c-1,0-1.6-0.7-1.9-2.1
				C313.8,72,314.5,71.3,315.7,71.3z M315.7,78.6c1.4,0.3,2,0.9,2,1.8v25.4c0,1.1-0.7,1.7-2,1.9h-0.1c-1.1,0-1.7-0.7-2-2.1V81
				C313.7,79.4,314.4,78.6,315.7,78.6z"/>
			<path class="st1" d="M326.5,67.3h0.4c1.3,0.3,1.9,0.8,1.9,1.7v34.6h2.2c0.9,0,1.5,0.7,1.8,2v0.1c-0.2,1.4-0.9,2-2,2h-4.1
				c-1.1,0-1.8-0.7-2-2.1v-36C324.9,68.1,325.5,67.3,326.5,67.3z"/>
			<path class="st1" d="M351.6,78.7c5.6,0,9.9,2.7,13,8c1.1,2.1,1.6,4.3,1.6,6.8V94c-0.2,1.4-0.9,2.1-2,2.1h-22.3
				c0.8,2.8,2.6,5,5.4,6.5c1.6,0.6,3.1,0.9,4.6,0.9c1.6,0,3.5-0.5,5.6-1.6h0.6c1.3,0.2,1.9,0.9,1.9,1.9v0.3c0,1.7-2.5,2.9-7.6,3.6
				h-0.7c-5.2,0-9.4-2.4-12.5-7.3c-1.3-2.3-1.9-4.7-1.9-7.2c0-5.3,2.5-9.5,7.5-12.7C347.2,79.3,349.5,78.7,351.6,78.7z M341.5,92
				h20.4c0-1.5-0.8-3.3-2.5-5.6c-2.3-2.2-4.6-3.3-6.9-3.3h-1.2c-3.4,0-6.2,1.7-8.4,5C342.2,89.3,341.7,90.6,341.5,92z"/>
		</g>
	</g>
	<g>
		<g>
			<path class="st2" d="M79.8,91.3c-0.3-2.6-1.1-5.1-2.3-7.4c-1.3-2.4-3-4.5-5.1-6.2c-1.8-1.5-3.9-2.6-6-3.3s-4.3-1.1-6.6-1.1
				c-3,0-5.9,0.7-8.6,1.9c-2.8,1.3-5.2,3.2-7.2,5.7c-1.7,2.1-2.9,4.5-3.7,7.1c-0.7,2.5-0.9,5.1-0.6,7.7c0.3,2.6,1.1,5.1,2.3,7.4
				c1.3,2.4,3,4.4,5.1,6.2c1.8,1.5,3.9,2.6,6,3.3s4.3,1.1,6.6,1.1c3,0,5.9-0.7,8.6-1.9c2.8-1.3,5.2-3.2,7.2-5.7
				c1.7-2.1,2.9-4.5,3.7-7.1C79.9,96.5,80.1,93.9,79.8,91.3z M42.5,95.4c-0.2-2.1-0.1-4.1,0.4-6.1c0.3,0.7,0.7,1.4,1.3,2.1
				c1.2,1.5,3.3,2.7,3.7,4.6c0.3,1.7-0.6,3.4-0.1,5.1c0.3,2.2,2.3,3.5,3.5,5.1c0.7,1,1.2,2,1.5,3.1c-1.4-0.6-2.7-1.4-3.8-2.3
				C45.3,104.2,43,100,42.5,95.4z M73.3,104.3c-3.3,4.1-8.3,6.5-13.6,6.5c-0.8,0-1.7-0.1-2.5-0.2c0.5-0.4,0.8-0.9,1-1.2
				c1.2-1.6,2.4-3.3,3.3-5c0.5-1,1.2-2.4,0.9-3.5c-0.2-0.8-1.1-1.1-1.8-1.6c-1-0.5-1.9-1.1-2.8-1.8c-0.9-0.8-1.7-1.7-2.6-2.5
				c-0.7-0.7-1.5-1.1-2.5-1.2c-1.2-0.1-3.1,0.4-4.2-0.1c-1.3-0.6-1.8-3.1-1.8-4.4c0.1-2.2,2.1-1.7,3.3-1.3c0.9,0.3,1.1,0.8,1.6-0.5
				c0.3-0.8-0.3-1.8,0-2.6c0.3-0.7,1.5-1.4,2-1.9c0.7-0.7,1.4-1.2,2-1.9c0.3-0.3,0.8-0.8,0.5-1.2c-0.5-0.5-1.2-0.7-1.8-0.9
				c-0.3-0.1-0.7-0.2-1-0.5c-0.2-0.1-0.5-0.2-0.6-0.5c-0.3-0.3,0.6-0.5,0.8-0.5c1.1-0.2,2.1-0.2,3.2-0.3c0.8-0.1,1.8-0.2,2.5-0.7
				c0.2-0.2,0.2-0.4,0.1-0.6c0.1,0,0.3,0,0.4,0c1.9,0,3.8,0.3,5.6,0.9c1.1,0.4,2.2,0.9,3.2,1.5c0,0.2,0.1,0.4,0.1,0.6
				c0.1,0.9,0.1,1.9,0.1,2.9c0.1,0.6,0.1,1.1,0.8,0.9c0.8-0.3,1.5-1,2.3-1.2c0.9-0.1,0.7,0.8,0.5,1.4c-0.9,3-3,4.7-2.8,8.1
				c0.1,1.9,2.1,5.2,4.2,3.6c0.8-0.6,1.6-1.5,2.5-1.8c0.4-0.1,0.7-0.1,1,0C77.2,97.1,75.9,101.1,73.3,104.3z"/>
		</g>
		<path class="st2" d="M84.7,78.6l-8.9-5.9v-2.1c0-1-0.5-1.9-1.6-1.9c-1,0-1.6,0.8-1.6,1.9l-11.9-7.9c-0.6-0.4-1.5-0.4-2.1,0
			L34.7,78.6c-0.9,0.6-1.1,1.7-0.5,2.6c0.6,0.9,1.8,1.1,2.6,0.5l22.8-15.2l22.9,15.2c0.3,0.2,0.7,0.3,1,0.3c0.6,0,1.2-0.3,1.6-0.8
			C85.8,80.3,85.6,79.2,84.7,78.6z"/>
	</g>
</g>
</svg>
