<?xml version="1.0" encoding="utf-8"?>
<!-- Generator: Adobe Illustrator 16.0.4, SVG Export Plug-In . SVG Version: 6.00 Build 0)  -->
<!DOCTYPE svg PUBLIC "-//W3C//DTD SVG 1.1//EN" "http://www.w3.org/Graphics/SVG/1.1/DTD/svg11.dtd">
<svg version="1.1" id="Layer_1" xmlns="http://www.w3.org/2000/svg" xmlns:xlink="http://www.w3.org/1999/xlink" x="0px" y="0px"
	 width="1457px" height="600px" viewBox="0 0 1457 600" enable-background="new 0 0 1457 600" xml:space="preserve">
<g>
	<defs>
		<rect id="SVGID_1_" width="1457" height="600"/>
	</defs>
	<clipPath id="SVGID_2_">
		<use xlink:href="#SVGID_1_"  overflow="visible"/>
	</clipPath>
	<g clip-path="url(#SVGID_2_)">
		<defs>
			<rect id="SVGID_3_" x="0.887" y="0.872" width="1457.212" height="600.25"/>
		</defs>
		<clipPath id="SVGID_4_">
			<use xlink:href="#SVGID_3_"  overflow="visible"/>
		</clipPath>
		<g clip-path="url(#SVGID_4_)">
			<defs>
				<rect id="SVGID_5_" x="0.887" y="0.872" width="1457.212" height="600.25"/>
			</defs>
			<clipPath id="SVGID_6_">
				<use xlink:href="#SVGID_5_"  overflow="visible"/>
			</clipPath>
			<path clip-path="url(#SVGID_6_)" fill="#010302" d="M281.72,518.374c-64.077-0.026-124.591-15.167-182.058-43.093
				c-8.677-4.217-17.118-8.92-25.687-13.36c-5.436-2.816-7.918-7.218-7.868-13.352c0.897-109.777,38.498-204.978,113.463-285.246
				c29.204-31.27,62.818-57.031,99.854-78.398c2.356-1.358,3.951-1.281,6.254,0.062c93.503,54.549,157.919,132.889,192.481,235.539
				c13.925,41.357,20.384,84.003,20.749,127.615c0.052,6.307-2.404,10.683-7.899,13.862
				C427.698,498.644,354.646,518.354,281.72,518.374 M131.563,274.5c-0.559,0.92-1.029,1.57-1.374,2.279
				c-24.93,51.242-37.545,105.447-39.188,162.321c-0.087,3.013,1.088,4.38,3.561,5.694c74.448,39.587,153.224,56.354,237.337,45.285
				c49.067-6.457,95.266-21.631,138.729-45.267c2.57-1.397,3.356-2.918,3.256-5.837c-1.611-47.044-10.936-92.448-28.671-136.079
				c-3.727-9.17-7.548-18.312-12.647-27.584c-3.306,4.632-6.241,8.656-9.083,12.744c-5.135,7.389-10.263,14.765-16.685,21.153
				c-20.41,20.3-50,21.253-71.632,2.226c-8.216-7.227-14.26-16.24-20.529-25.068c-4.34-6.113-8.589-12.323-14.361-17.229
				c-10.698-9.093-24.457-9.086-35.108-0.022c-4.737,4.031-8.371,9.02-11.953,14.041c-6.38,8.942-12.266,18.26-20.143,26.051
				c-21.352,21.119-52.368,21.202-73.854,0.223c-6.964-6.801-12.395-14.789-17.991-22.666
				C138.267,282.598,135.613,278.163,131.563,274.5 M196.547,300.026c0.552-0.051,1.714-0.136,2.871-0.268
				c8.168-0.935,14.275-5.487,19.088-11.679c7.046-9.065,13.407-18.669,20.556-27.648c24.482-30.748,61.607-31.064,86.655-0.831
				c4.136,4.991,7.784,10.387,11.63,15.617c4.634,6.302,8.95,12.872,14.974,18.011c11.093,9.462,25.633,9.005,36.137-1.054
				c4.117-3.943,7.5-8.471,10.779-13.093c6.161-8.685,11.725-17.845,19.483-25.273c2.031-1.945,0.668-3.185-0.228-4.682
				C385.2,193.505,341.033,148.58,286.001,114.313c-2.348-1.462-4.076-1.836-6.667-0.232
				c-55.067,34.098-99.916,78.337-133.472,133.877c-1.314,2.176-1.618,3.531,0.446,5.449c6.381,5.933,11.284,13.104,16.261,20.195
				c4.497,6.406,8.894,12.887,14.56,18.373C182.383,297.063,188.583,299.867,196.547,300.026"/>
			<path clip-path="url(#SVGID_6_)" fill="#FFFFFF" d="M742.706,357.35c6.712-12.87,13.098-25.093,19.466-37.326
				c11.214-21.54,22.405-43.093,33.633-64.627c4.688-8.99,13.604-12.261,21.723-8.043c8.155,4.239,10.885,13.394,6.268,22.301
				c-19.516,37.651-39.143,75.244-58.729,112.859c-2.229,4.279-4.382,8.6-6.698,12.831c-6.33,11.559-20.355,12.321-27.639,1.308
				c-15.333-23.188-30.542-46.461-45.597-69.832c-2.529-3.926-3.563-3.913-6.08-0.003c-14.954,23.236-30.103,46.348-45.263,69.45
				c-7.527,11.47-21.842,10.785-28.186-1.379c-21.765-41.73-43.425-83.514-65.197-125.241c-2.651-5.08-3.305-10.088-0.653-15.247
				c2.815-5.474,7.267-8.478,13.567-8.625c6.698-0.157,11.549,2.812,14.593,8.627c11.103,21.219,22.119,42.484,33.178,63.727
				c6.671,12.815,13.359,25.622,20.46,39.237c4.065-6.133,7.735-11.609,11.345-17.128c11.667-17.832,23.255-35.715,34.983-53.507
				c7.957-12.072,20.833-11.926,28.654,0.111c14.694,22.612,29.452,45.182,44.188,67.766
				C741.171,355.297,741.684,355.942,742.706,357.35"/>
			<path clip-path="url(#SVGID_6_)" fill="#FFFFFF" d="M1215.723,314.232c-0.632-50.856,42.919-92.939,93.894-91.571
				c48.337,1.298,90.96,41.989,89.237,94.858c-1.631,50.047-43.765,89.387-93.51,88.64
				C1256.342,405.423,1215.709,364.372,1215.723,314.232 M1367.364,314.198c-0.008-33.071-27.022-60.188-59.964-60.188
				c-33.251,0-60.477,27.129-60.48,60.267c-0.006,33.177,27.308,60.577,60.33,60.527
				C1340.476,374.754,1367.372,347.636,1367.364,314.198"/>
			<path clip-path="url(#SVGID_6_)" fill="#FFFFFF" d="M963.612,406.005c-50.661,0-91.697-41.059-91.524-91.884
				c0.182-53.369,45.006-92.797,94.063-91.473c44.766,1.207,89.221,37.244,89.222,91.761
				C1055.373,369.129,1010.177,406.821,963.612,406.005 M1023.932,314.604c0-33.459-26.82-60.56-59.964-60.593
				c-33.358-0.033-60.763,27.387-60.596,60.629c0.166,33.044,27.556,60.206,60.668,60.166
				C996.888,374.766,1023.932,347.58,1023.932,314.604"/>
			<path clip-path="url(#SVGID_6_)" fill="#FFFFFF" d="M1154.357,281.92c-0.001,35.984-0.014,71.968,0.011,107.952
				c0.005,7.059-3.039,12.24-9.514,14.985c-5.833,2.473-11.437,1.566-16.306-2.597c-3.91-3.346-5.457-7.699-5.445-12.839
				c0.064-28.486,0.031-56.975,0.031-85.462c0-43.647-0.02-87.294,0.018-130.941c0.006-8.005,5.76-14.844,13.12-15.901
				c7.644-1.099,14.805,3.235,17.345,10.438c0.856,2.427,0.735,4.922,0.735,7.412C1154.36,210.618,1154.358,246.27,1154.357,281.92"
				/>
			<path clip-path="url(#SVGID_6_)" fill="#BEFD00" d="M131.563,274.5c4.05,3.663,6.704,8.098,9.664,12.265
				c5.596,7.877,11.027,15.865,17.991,22.665c21.486,20.98,52.502,20.897,73.853-0.222c7.877-7.791,13.763-17.109,20.144-26.052
				c3.582-5.02,7.216-10.01,11.952-14.04c10.652-9.064,24.411-9.071,35.109,0.021c5.772,4.906,10.02,11.116,14.361,17.23
				c6.268,8.828,12.312,17.841,20.528,25.068c21.633,19.028,51.222,18.074,71.633-2.225c6.422-6.389,11.55-13.764,16.685-21.154
				c2.842-4.088,5.777-8.111,9.083-12.743c5.099,9.271,8.92,18.414,12.647,27.584c17.735,43.631,27.06,89.035,28.67,136.078
				c0.1,2.92-0.685,4.44-3.255,5.837c-43.463,23.636-89.662,38.812-138.73,45.269c-84.112,11.067-162.889-5.699-237.337-45.285
				c-2.473-1.315-3.647-2.684-3.56-5.695c1.643-56.874,14.257-111.08,39.188-162.321C130.534,276.069,131.004,275.42,131.563,274.5"
				/>
			<path clip-path="url(#SVGID_6_)" fill="#FDFDFD" d="M196.547,300.026c-7.964-0.159-14.164-2.963-19.418-8.051
				c-5.666-5.486-10.063-11.967-14.56-18.373c-4.977-7.091-9.88-14.262-16.261-20.195c-2.064-1.918-1.76-3.273-0.446-5.449
				c33.556-55.54,78.405-99.779,133.472-133.877c2.591-1.604,4.319-1.229,6.667,0.232c55.032,34.267,99.199,79.192,132.491,134.813
				c0.896,1.497,2.259,2.737,0.228,4.682c-7.758,7.428-13.322,16.588-19.483,25.273c-3.279,4.622-6.662,9.15-10.779,13.093
				c-10.504,10.059-25.044,10.516-36.137,1.054c-6.024-5.139-10.34-11.709-14.974-18.011c-3.846-5.23-7.494-10.626-11.63-15.617
				c-25.048-30.233-62.173-29.917-86.655,0.831c-7.149,8.979-13.51,18.583-20.556,27.648c-4.813,6.192-10.92,10.744-19.088,11.679
				C198.261,299.89,197.099,299.975,196.547,300.026"/>
		</g>
	</g>
</g>
</svg>
